<?xml version="1.0" standalone="no"?>
<!DOCTYPE svg PUBLIC "-//W3C//DTD SVG 20010904//EN"
 "http://www.w3.org/TR/2001/REC-SVG-20010904/DTD/svg10.dtd">
<svg version="1.0" xmlns="http://www.w3.org/2000/svg"
 width="300.000000pt" height="73.000000pt" viewBox="0 0 300.000000 73.000000"
 preserveAspectRatio="xMidYMid meet">

<g transform="translate(0.000000,73.000000) scale(0.100000,-0.100000)"
fill="#000000" stroke="none">
<path d="M0 365 l0 -365 1335 0 c734 0 1335 2 1335 5 0 4 -7 20 -16 38 -9 17
-19 54 -23 82 l-6 50 -64 3 c-44 2 -73 9 -92 23 -29 20 -54 25 -63 10 -14 -22
-163 -33 -203 -14 -28 13 -34 13 -55 0 -18 -12 -37 -13 -88 -7 -58 8 -67 6
-87 -12 l-21 -20 -45 26 c-34 20 -59 26 -108 27 -61 2 -187 -15 -219 -28 -8
-3 -25 -5 -37 -4 -12 1 -38 -2 -58 -8 -42 -11 -91 5 -141 48 -17 14 -39 31
-49 37 -15 8 -19 27 -23 100 -2 49 -11 101 -18 116 -8 15 -14 55 -14 90 0 35
-3 87 -6 116 l-7 52 -613 0 -614 0 0 -365z"/>
</g>
</svg>
